<?xml version="1.0" encoding="UTF-8" standalone="no"?>
<!-- Generator: Adobe Illustrator 24.0.3, SVG Export Plug-In . SVG Version: 6.00 Build 0)  -->

<svg
   version="1.1"
   id="レイヤー_1"
   x="0px"
   y="0px"
   viewBox="0 0 360 189"
   xml:space="preserve"
   sodipodi:docname="noimage.svg"
   width="1200"
   height="630"
   inkscape:version="1.1.2 (0a00cf5339, 2022-02-04)"
   xmlns:inkscape="http://www.inkscape.org/namespaces/inkscape"
   xmlns:sodipodi="http://sodipodi.sourceforge.net/DTD/sodipodi-0.dtd"
   xmlns="http://www.w3.org/2000/svg"
   xmlns:svg="http://www.w3.org/2000/svg"><defs
   id="defs31" /><sodipodi:namedview
   id="namedview29"
   pagecolor="#ffffff"
   bordercolor="#000000"
   borderopacity="0.25"
   inkscape:pageshadow="2"
   inkscape:pageopacity="0.0"
   inkscape:pagecheckerboard="0"
   showgrid="false"
   inkscape:zoom="0.51817429"
   inkscape:cx="412.02353"
   inkscape:cy="46.316462"
   inkscape:window-width="1920"
   inkscape:window-height="996"
   inkscape:window-x="0"
   inkscape:window-y="0"
   inkscape:window-maximized="1"
   inkscape:current-layer="レイヤー_1" />
<style
   type="text/css"
   id="style2">
	.st0{fill:none;stroke:#000000;stroke-width:5;stroke-linecap:round;stroke-linejoin:round;}
</style>
<g
   id="g10"
   transform="matrix(0.68076575,0,0,0.68076575,-327.90982,-587.15156)">
	<path
   class="st0"
   d="M 796.1,1028.4 H 697 c -7.7,0 -14,-6.3 -14,-14 V 948 c 0,-7.7 6.3,-14 14,-14 h 99.1 c 7.7,0 14,6.3 14,14 v 66.4 c 0,7.7 -6.3,14 -14,14 z"
   id="path4" />
	<circle
   class="st0"
   cx="708.90002"
   cy="960.09998"
   r="7.8000002"
   id="circle6" />
	<path
   class="st0"
   d="m 809.5,1007.5 -36.9,-36.9 c -2.5,-2.5 -6.6,-2.5 -9.1,0 l -29.7,30.3 -12.3,-12.3 c -2.5,-2.5 -6.6,-2.5 -9.1,0 l -29.1,29.1"
   id="path8" />
</g>
<g
   id="g26"
   transform="matrix(0.68076575,0,0,0.68076575,-327.90982,-587.15156)">
	<path
   d="m 674.5,1080 -10.9,-16.6 V 1080 H 660 v -23.6 h 3.3 l 10.9,16.5 v -16.5 h 3.6 v 23.6 z"
   id="path12" />
	<path
   d="m 701.1,1077.6 c -1.6,1.6 -3.7,2.5 -6.2,2.5 -2.5,0 -4.6,-0.9 -6.2,-2.5 -2.3,-2.3 -2.3,-4.9 -2.3,-9.5 0,-4.6 0,-7.1 2.3,-9.5 1.6,-1.6 3.7,-2.5 6.2,-2.5 2.5,0 4.6,0.9 6.2,2.5 2.3,2.3 2.3,4.9 2.3,9.5 0,4.6 0,7.2 -2.3,9.5 z m -2.7,-16.7 c -0.8,-0.9 -2.1,-1.5 -3.5,-1.5 -1.4,0 -2.7,0.6 -3.5,1.5 -1.2,1.3 -1.4,2.6 -1.4,7.3 0,4.7 0.2,6.1 1.4,7.3 0.8,0.9 2.1,1.5 3.5,1.5 1.4,0 2.7,-0.6 3.5,-1.5 1.2,-1.3 1.4,-2.6 1.4,-7.3 0,-4.7 -0.3,-6.1 -1.4,-7.3 z"
   id="path14" />
	<path
   d="m 723.2,1080 v -23.6 h 3.6 v 23.6 z"
   id="path16" />
	<path
   d="m 753.4,1080 v -15.8 l -5.4,11.5 h -2.6 l -5.6,-11.5 v 15.8 h -3.6 v -23.6 h 3.6 l 6.9,14.7 6.8,-14.7 h 3.6 v 23.6 z"
   id="path18" />
	<path
   d="m 780,1080 -1.6,-4.7 H 769 l -1.6,4.7 h -3.8 l 8.6,-23.6 h 2.9 l 8.6,23.6 z m -6.2,-18.3 -3.7,10.5 h 7.2 z"
   id="path20" />
	<path
   d="m 804.2,1077.5 c -1.8,1.9 -4,2.7 -6.5,2.7 -2.4,0 -4.6,-0.9 -6.2,-2.5 -2.3,-2.3 -2.3,-4.9 -2.3,-9.5 0,-4.6 0,-7.1 2.3,-9.5 1.6,-1.6 3.7,-2.5 6.2,-2.5 5,0 7.9,3.3 8.6,7.3 h -3.6 c -0.6,-2.6 -2.3,-4.1 -5,-4.1 -1.4,0 -2.6,0.6 -3.5,1.5 -1.2,1.3 -1.4,2.6 -1.4,7.3 0,4.7 0.3,6.1 1.4,7.3 0.8,0.9 2.1,1.4 3.5,1.4 1.6,0 2.9,-0.6 3.8,-1.7 0.9,-1 1.2,-2.2 1.2,-3.7 v -1.3 h -5 v -3 h 8.6 v 3.6 c 0,3.1 -0.5,5 -2.1,6.7 z"
   id="path22" />
	<path
   d="m 814.9,1080 v -23.6 H 830 v 3.2 h -11.5 v 6.9 h 9.8 v 3.2 h -9.8 v 7.1 H 830 v 3.2 z"
   id="path24" />
</g>
</svg>
